<?xml version="1.0" standalone="no"?>
<!DOCTYPE svg PUBLIC "-//W3C//DTD SVG 20010904//EN"
 "http://www.w3.org/TR/2001/REC-SVG-20010904/DTD/svg10.dtd">
<svg version="1.0" xmlns="http://www.w3.org/2000/svg"
 width="540.000000pt" height="540.000000pt" viewBox="0 0 540.000000 540.000000"
 preserveAspectRatio="xMidYMid meet">

<g transform="translate(0.000000,540.000000) scale(0.100000,-0.100000)"
fill="#000000" stroke="none">
<path d="M0 2700 l0 -2700 2700 0 2700 0 0 2700 0 2700 -2700 0 -2700 0 0
-2700z m3276 1594 c196 -66 349 -159 484 -294 176 -176 281 -371 336 -625 30
-142 18 -480 -20 -529 -20 -27 -62 -30 -86 -6 -17 17 -21 30 -17 58 24 167 30
278 19 360 -61 460 -350 800 -791 932 -58 17 -74 26 -81 46 -14 35 -13 41 10
64 26 26 52 25 146 -6z m20 -243 c291 -113 535 -407 590 -711 25 -141 12 -363
-23 -402 -22 -24 -58 -23 -84 3 -18 18 -20 27 -12 67 15 84 9 291 -10 362 -60
223 -219 421 -423 526 -54 29 -124 59 -155 68 -42 12 -59 22 -67 41 -16 35
-15 42 9 66 27 27 65 23 175 -20z m-820 -42 c105 -39 230 -133 392 -294 l152
-152 54 -6 c30 -3 69 -13 87 -22 43 -22 106 -81 126 -118 21 -42 31 -120 22
-177 -8 -49 -6 -53 43 -133 120 -193 206 -416 193 -501 -12 -84 -49 -116 -130
-116 -150 0 -436 218 -675 514 -225 279 -460 742 -460 906 0 46 4 56 34 86 41
41 78 44 162 13z m791 -189 c90 -41 181 -108 242 -176 57 -65 134 -211 156
-299 21 -81 22 -240 1 -288 -13 -33 -19 -37 -50 -37 -55 0 -65 24 -59 134 16
258 -139 488 -387 575 -57 20 -83 51 -74 86 15 54 64 55 171 5z m-942 -355
c175 -370 449 -716 727 -919 37 -27 67 -51 65 -52 -1 -1 -31 4 -67 11 -120 25
-281 38 -395 31 -197 -13 -333 -50 -588 -162 -130 -58 -155 -66 -211 -66 -166
-1 -299 135 -298 304 0 92 21 130 141 253 270 275 427 497 503 709 l32 89 15
-34 c8 -19 42 -92 76 -164z m227 -1217 c149 -217 156 -233 122 -304 -38 -79
-151 -99 -215 -38 -31 29 -276 380 -279 399 -2 9 230 95 256 95 6 0 59 -69
116 -152z m-471 -262 c108 -21 217 -60 341 -123 113 -57 163 -92 270 -186 l67
-59 73 64 c239 209 497 311 813 324 l140 6 96 -114 c53 -62 96 -114 95 -115
-2 -2 -29 2 -62 9 -87 16 -303 13 -414 -6 -180 -32 -391 -118 -595 -244 -138
-86 -160 -86 -304 5 -195 123 -400 207 -585 240 -102 18 -340 21 -421 5 -27
-6 -51 -10 -52 -9 -1 1 42 53 95 116 l97 113 135 -6 c74 -3 169 -12 211 -20z
m-48 -301 c168 -35 364 -119 557 -240 58 -36 120 -70 139 -75 46 -13 90 4 207
80 53 34 146 86 208 115 209 100 348 135 561 142 l140 5 74 -87 c40 -47 72
-88 69 -90 -2 -2 -35 1 -73 7 -103 15 -331 5 -435 -21 -179 -45 -356 -125
-567 -259 -91 -57 -108 -64 -153 -64 -46 0 -64 8 -183 80 -218 132 -341 188
-522 239 -72 20 -121 26 -245 30 -85 3 -182 0 -215 -5 -33 -6 -62 -8 -63 -7
-2 2 29 43 70 90 l73 87 140 -5 c77 -3 175 -13 218 -22z"/>
<path d="M2470 3835 c-29 -34 31 -195 149 -400 199 -345 515 -689 687 -745 45
-15 84 7 84 48 0 70 -89 267 -165 366 -30 39 -33 49 -25 71 16 42 11 126 -9
170 -37 79 -120 135 -202 135 -39 0 -45 5 -137 102 -108 113 -220 207 -293
243 -56 29 -72 31 -89 10z m543 -459 c42 -17 85 -68 92 -110 8 -40 -9 -106
-34 -137 l-18 -23 -41 33 c-45 35 -123 134 -153 193 l-20 38 23 10 c35 13 115
12 151 -4z"/>
</g>
</svg>
